# xmcd
#
# Track frame offsets:
#	150
#	38065
#	70060
#	135550
#	208942
#	252185
#	259522
#
# Disc length: 4250 seconds
#
# Revision: 1
# Processed by: cddbd v1.5.1PL0 Copyright (c) Steve Scherf et al.
# Submitted via: CDex 1.50Beta5
#
DISCID=5f109807
DTITLE=古今亭志ん朝 - 落語名人会４「文七元結」
DYEAR=1993
DGENRE=Books
TTITLE0=文七元結・出囃子「三下り中の舞」〜マクラ
TTITLE1=文七元結・長兵衛内
TTITLE2=文七元結・佐野槌内証
TTITLE3=文七元結・あづま橋
TTITLE4=文七元結・近江屋内
TTITLE5=文七元結・翌朝
TTITLE6=文七元結・再び長兵衛内〜結末〜追い出し
EXTD=
EXTT0=
EXTT1=
EXTT2=
EXTT3=
EXTT4=
EXTT5=
EXTT6=
PLAYORDER=
